HIERARCHY
ROOT ui
{
	 OFFSET 0 0 0
	 CHANNELS 3 XPosition YPosition Z Position
	 EndSite
	 {
	 OFFSET 0 -1 0
	 }
}
ROOT li
{
	 OFFSET 0 0 0
	 CHANNELS 3 XPosition YPosition Z Position
	 EndSite
	 {
	 OFFSET 0 -1 0
	 }
}
ROOT ul
{
	 OFFSET 0 0 0
	 CHANNELS 3 XPosition YPosition Z Position
	 EndSite
	 {
	 OFFSET 0 -1 0
	 }
}
ROOT ll
{
	 OFFSET 0 0 0
	 CHANNELS 3 XPosition YPosition Z Position
	 EndSite
	 {
	 OFFSET 0 -1 0
	 }
}
ROOT tt
{
	 OFFSET 0 0 0
	 CHANNELS 3 XPosition YPosition Z Position
	 EndSite
	 {
	 OFFSET 0 -1 0
	 }
}
ROOT tb
{
	 OFFSET 0 0 0
	 CHANNELS 3 XPosition YPosition Z Position
	 EndSite
	 {
	 OFFSET 0 -1 0
	 }
}
ROOT td
{
	 OFFSET 0 0 0
	 CHANNELS 3 XPosition YPosition Z Position
	 EndSite
	 {
	 OFFSET 0 -1 0
	 }
}
ROOT v
{
	 OFFSET 0 0 0
	 CHANNELS 3 XPosition YPosition Z Position
	 EndSite
	 {
	 OFFSET 0 -1 0
	 }
}
ROOT bn
{
	 OFFSET 0 0 0
	 CHANNELS 3 XPosition YPosition Z Position
	 EndSite
	 {
	 OFFSET 0 -1 0
	 }
}
MOTION
Frames: 16
Frame Time: 0.002
-0.05869178009033203	-2.5045201182365416E-4	0		0.43190823364257813	-2.34593408203125	0		-1.048466796875	0.28674322509765626	0		-0.6330578002929688	-2.86489599609375	0		1.5530318603515625	-0.4276611938476563	0		3.1171630859375	0.23077149963378907	0		4.395720703125	0.4564713134765625	0		5.96822216796875	0.4929184875488281	0		-0.30401895141601565	5.9341357421875	0		
0.017594362258911134	-0.0022493228912353514	0		0.40859255981445314	-2.3383779296875	0		-1.1292257080078125	0.2849872131347656	0		-0.6850110473632812	-2.837028076171875	0		1.5523902587890626	-0.4273216247558594	0		3.103552978515625	0.2384832763671875	0		4.3880693359375	0.4632387084960938	0		5.96653662109375	0.532493408203125	0		-0.2713132629394531	5.93875341796875	0		
0.0209824161529541	8.350980281829834E-4	0		0.43720263671875	-2.3386201171875	0		-1.0521915283203125	0.265840087890625	0		-0.6429727783203125	-2.8125927734375	0		1.561960693359375	-0.4151505126953125	0		3.112495849609375	0.21383740234375	0		4.3901806640625	0.45184371948242186	0		5.96725732421875	0.4958334045410156	0		-0.15350407409667968	5.948091796875	0		
0.016327829360961915	-0.001981950044631958	0		0.43686480712890624	-2.338447998046875	0		-1.05514306640625	0.24487026977539061	0		-0.675838134765625	-2.784062255859375	0		1.5613984375	-0.4148471984863281	0		3.11103759765625	0.22633503723144532	0		4.378326171875	0.43964083862304687	0		5.961953125	0.518194580078125	0		-0.15480853271484374	5.94819482421875	0		
0.015771838188171388	-0.0018804960250854493	0		0.46050726318359375	-2.343648193359375	0		-1.0648297119140624	0.2379785614013672	0		-0.6327058715820313	-2.7596748046875	0		1.56394921875	-0.4106087646484375	0		3.1072060546875	0.20984556579589844	0		4.384615234375	0.43315255737304686	0		5.9652236328125	0.536759521484375	0		-0.3244406433105469	5.92374072265625	0		
0.015274453163146972	-0.001800745964050293	0		0.43433084106445313	-2.340138671875	0		-1.0617335205078124	0.21187620544433594	0		-0.6634404907226562	-2.7292236328125	0		1.56044189453125	-0.4143034362792969	0		3.0875986328125	0.20456463623046875	0		4.37796533203125	0.42683255004882814	0		5.969732421875	0.5171813354492187	0		-0.28860772705078125	5.9252421875	0		
0.01177856731414795	-0.005698614120483399	0		0.437221923828125	-2.3360751953125	0		-1.043530517578125	0.18853770446777343	0		-0.6880542602539063	-2.693887451171875	0		1.5986148681640624	-0.444624267578125	0		3.135928955078125	0.19027572631835937	0		4.38157763671875	0.43434051513671873	0		5.97308544921875	0.5356663208007812	0		-0.27359375	5.93503369140625	0		
0.021537872314453126	0.004195172786712647	0		0.4411787414550781	-2.331046142578125	0		-1.0380076904296875	0.18336868286132812	0		-0.66274365234375	-2.66729052734375	0		1.5982825927734374	-0.44440365600585935	0		3.10664111328125	0.19908741760253906	0		4.38704345703125	0.4277966003417969	0		5.9728076171875	0.536930908203125	0		-0.14333088684082032	5.95716259765625	0		
0.01815968704223633	0.0012582030296325684	0		0.4551207275390625	-2.330177001953125	0		-1.0387896728515624	0.15327157592773438	0		-0.6604501342773438	-2.644378662109375	0		1.5624837646484375	-0.4096970520019531	0		3.1079423828125	0.1754318542480469	0		4.37948974609375	0.41641290283203125	0		5.972564453125	0.5381456298828124	0		-0.291810302734375	5.9252529296875	0		
0.01786015510559082	0.0012604680061340332	0		0.4192388610839844	-2.318620361328125	0		-1.03447265625	0.12708849334716796	0		-0.6748063354492188	-2.598245361328125	0		1.555117919921875	-0.4174237365722656	0		3.1125244140625	0.16870797729492187	0		4.3789609375	0.40390142822265623	0		5.96501416015625	0.5049526977539063	0		-0.2927685241699219	5.925220703125	0		
0.0064417109489440915	-0.008599102020263672	0		0.4192099304199219	-2.318591064453125	0		-1.04111474609375	0.10204673767089843	0		-0.694523681640625	-2.578056884765625	0		1.5548834228515624	-0.417271728515625	0		3.12805712890625	0.1568060607910156	0		4.3794560546875	0.39134609985351565	0		5.96847802734375	0.5232280883789062	0		-0.32678353881835936	5.918634765625	0		
-0.06371858215332031	3.401960134506226E-4	0		0.40313372802734376	-2.3213564453125	0		-1.0335853271484374	0.08879684448242188	0		-0.6481488037109375	-2.55080126953125	0		1.554648193359375	-0.41714016723632813	0		3.10886083984375	0.1643650665283203	0		4.38321875	0.39771728515625	0		5.9719404296875	0.5414431762695312	0		-0.2784648132324219	5.93388818359375	0		
0.012075416564941406	0.006242579936981201	0		0.42520889282226565	-2.311663818359375	0		-1.023317138671875	0.05749947738647461	0		-0.7106845092773437	-2.514047607421875	0		1.585020751953125	-0.4444515075683594	0		3.134188720703125	0.1382796173095703	0		4.38270458984375	0.3851173400878906	0		5.97172607421875	0.5424207763671876	0		-0.16021980285644533	5.9431767578125	0		
-0.06129602813720703	0.0031862809658050537	0		0.4230838317871094	-2.313650390625	0		-0.964992919921875	0.03154021835327148	0		-0.6443861694335937	-2.487076904296875	0		1.57104296875	-0.4221634521484375	0		3.147014892578125	0.15035038757324218	0		4.3782490234375	0.37854379272460936	0		5.96782861328125	0.52615966796875	0		-0.2934234619140625	5.92191162109375	0		
0.01228652572631836	-0.0018890279531478882	0		0.42090261840820314	-2.31664892578125	0		-0.9766087646484375	0.012536001205444337	0		-0.7100838623046875	-2.455309326171875	0		1.5707261962890624	-0.42208270263671877	0		3.125334716796875	0.1278650436401367	0		4.384775390625	0.37279141235351565	0		5.96757177734375	0.5270161743164062	0		-0.29433071899414065	5.92181884765625	0		
-0.06913434600830078	-0.003869832992553711	0		0.4207187805175781	-2.3166865234375	0		-0.975402587890625	-0.017648847579956054	0		-0.63501953125	-2.43845947265625	0		1.594901123046875	-0.45735281372070313	0		3.124935546875	0.1280658721923828	0		4.382166015625	0.3591314392089844	0		5.96729150390625	0.5278050537109376	0		-0.32833184814453126	5.9151640625	0		
